<?xml version="1.0" encoding="UTF-8"?>
<svg id="Layer_1" data-name="Layer 1" xmlns="http://www.w3.org/2000/svg" viewBox="0 0 500 500">
  <defs>
    <style>
      .cls-1 {
        fill: #4ac8ef;
        stroke-width: 0px;
      }
    </style>
  </defs>
  <path class="cls-1" d="M463.22,344.12c-15.56,15.47-37.1,23.38-59.01,23.38H92.62c-20.16,0-40-6.86-54.96-20.35-47.09-42.49,9.57-92.53,9.57-92.53,7.46-6.86,16.62-12.43,26.84-16.25,3.96-39.36,38.71-70.11,80.97-70.11,9.21,0,18.04,1.47,26.28,4.14.28-42.63,38.25-77.15,85.07-77.15,43.69,0,79.68,30.01,84.52,68.68,5.25-.97,10.68-1.52,16.25-1.52,44.97,0,81.39,34.75,81.39,77.66,0,1.89-.09,3.77-.23,5.62,4.28,2.62,8.29,5.62,11.88,8.93,33.01,42.12,21.27,71.35,3.04,89.49Z"/>
</svg>